<svg xmlns="http://www.w3.org/2000/svg" width="109.571" height="177.198" viewBox="0 0 109.571 177.198"><g transform="translate(-36.444 -24.125)"><g transform="translate(36.946 24.625)"><path d="M98.548,84.5H50.975A4.635,4.635,0,0,1,46.3,79.825v-3.85A4.635,4.635,0,0,1,50.975,71.3H98.548a4.635,4.635,0,0,1,4.675,4.675v3.85A4.471,4.471,0,0,1,98.548,84.5Z" transform="translate(-20.578 57.05)" fill="#eebfb2" stroke="#000" stroke-linecap="round" stroke-linejoin="round" stroke-miterlimit="10" stroke-width="1"/><path d="M93.423,89.4H52.175A4.635,4.635,0,0,1,47.5,84.725v-3.85A4.635,4.635,0,0,1,52.175,76.2H93.423A4.635,4.635,0,0,1,98.1,80.875v3.85A4.819,4.819,0,0,1,93.423,89.4Z" transform="translate(-18.478 65.625)" fill="#eebfb2" stroke="#000" stroke-linecap="round" stroke-linejoin="round" stroke-miterlimit="10" stroke-width="1"/><path d="M88.023,94.2H53.375A4.635,4.635,0,0,1,48.7,89.525v-3.85A4.635,4.635,0,0,1,53.375,81H88.023A4.635,4.635,0,0,1,92.7,85.675v3.85A4.635,4.635,0,0,1,88.023,94.2Z" transform="translate(-16.378 74.024)" fill="#eebfb2" stroke="#000" stroke-linecap="round" stroke-linejoin="round" stroke-miterlimit="10" stroke-width="1"/><path d="M59,85.8h10.45c3.575,0,6.6,0,6.6,2.75h0c0,3.025-3.025,5.225-6.6,5.225H59c-3.575,0-6.6-2.475-6.6-5.225h0C52.4,85.8,55.425,85.8,59,85.8Z" transform="translate(-9.903 82.423)" fill="#b67f6f" stroke="#000" stroke-linecap="round" stroke-linejoin="round" stroke-miterlimit="10" stroke-width="1"/><path d="M129.765,40.506a54.371,54.371,0,0,0-78.371,75.346h0s16.224,17.324,16.224,37.123h47.3c0-19.8,16.224-37.123,16.224-37.123h0C150.664,94.4,150.389,61.13,129.765,40.506Z" transform="translate(-36.946 -24.625)" fill="#fcffec" stroke="#000" stroke-linecap="round" stroke-linejoin="round" stroke-miterlimit="10" stroke-width="1"/></g><path d="M59.9,99.9s1.65-45.1,13.2-45.1" transform="translate(40.167 52.802)" fill="#fff" stroke="#000" stroke-linecap="round" stroke-linejoin="round" stroke-miterlimit="10" stroke-width="1"/><path d="M61.9,99.9s-1.65-45.1-13.2-45.1" transform="translate(20.568 52.802)" fill="#fff" stroke="#000" stroke-linecap="round" stroke-linejoin="round" stroke-miterlimit="10" stroke-width="1"/><line y1="46.748" transform="translate(91.267 105.952)" fill="#fff" stroke="#000" stroke-linecap="round" stroke-linejoin="round" stroke-miterlimit="10" stroke-width="1"/></g></svg>